<?xml version="1.0" encoding="UTF-8"?>
<svg version="1.1" xmlns="http://www.w3.org/2000/svg" width="192" height="192">
<path d="M0 0 C1.05703125 0.37382813 2.1140625 0.74765625 3.203125 1.1328125 C27.03338431 10.35940008 44.69377258 27.55211742 55.75 50.4375 C64.88325801 71.45016455 66.79809688 97.28765183 59 119 C58.62617188 120.05703125 58.25234375 121.1140625 57.8671875 122.203125 C48.64059992 146.03338431 31.44788258 163.69377258 8.5625 174.75 C-12.45016455 183.88325801 -38.28765183 185.79809688 -60 178 C-61.05703125 177.62617188 -62.1140625 177.25234375 -63.203125 176.8671875 C-87.03338431 167.64059992 -104.69377258 150.44788258 -115.75 127.5625 C-124.88325801 106.54983545 -126.79809688 80.71234817 -119 59 C-118.62617187 57.94296875 -118.25234375 56.8859375 -117.8671875 55.796875 C-108.64059992 31.96661569 -91.44788258 14.30622742 -68.5625 3.25 C-47.54983545 -5.88325801 -21.71234817 -7.79809688 0 0 Z " fill="#00FF08" transform="translate(126,6)"/>
<path d="M0 0 C3.44110433 1.44585523 6.637844 3.27367494 9.875 5.125 C10.83317627 5.6605249 11.79135254 6.1960498 12.77856445 6.74780273 C21.97755966 11.91613753 31.09152785 17.23613997 40.18359375 22.58984375 C43.97234324 24.81944745 47.77499266 27.02046909 51.59765625 29.19140625 C52.90536987 29.93668579 52.90536987 29.93668579 54.23950195 30.69702148 C55.86145418 31.61959258 57.48611902 32.53741823 59.11401367 33.44946289 C68.05965938 38.55511439 68.05965938 38.55511439 69.9375 43.4375 C70.0215215 46.88238149 69.08974412 48.28333264 67 51 C63.80185834 53.73835145 60.57329848 55.93826077 56.88671875 57.9609375 C55.89768555 58.50806396 54.90865234 59.05519043 53.88964844 59.61889648 C52.83293945 60.19841064 51.77623047 60.7779248 50.6875 61.375 C41.80985086 66.28945939 32.99883868 71.29725338 24.25 76.4375 C20.50212956 78.62866493 16.75183594 80.81563298 13 83 C12.27200195 83.42522949 11.54400391 83.85045898 10.79394531 84.28857422 C8.99588118 85.33173612 7.18602358 86.35450259 5.375 87.375 C3.99441406 88.16003906 3.99441406 88.16003906 2.5859375 88.9609375 C-0.50047734 90.20109815 -2.70168198 90.3584142 -6 90 C-9.10164769 87.44975635 -10.72566416 85.82300753 -12 82 C-12.10520036 79.65563441 -12.1487102 77.30836181 -12.16113281 74.96166992 C-12.16609772 74.24910538 -12.17106262 73.53654083 -12.17617798 72.80238342 C-12.1907823 70.4450687 -12.19759903 68.08782129 -12.203125 65.73046875 C-12.2088783 64.09003193 -12.21463601 62.44959512 -12.22039795 60.80915833 C-12.2309033 57.36845588 -12.23674887 53.92777677 -12.24023438 50.48706055 C-12.24571523 46.08542384 -12.26973633 41.68409708 -12.29820633 37.28255749 C-12.31686209 33.8930014 -12.32203989 30.50351949 -12.32357025 27.1139164 C-12.32659116 25.49165466 -12.33460073 23.86939406 -12.34775543 22.24718285 C-12.36487627 19.9733891 -12.36292124 17.70034633 -12.35644531 15.42651367 C-12.36009094 14.13428391 -12.36373657 12.84205414 -12.36749268 11.51066589 C-11.96433197 7.65926252 -11.04674892 5.27048092 -9 2 C-5.36346057 -0.42435962 -4.30587858 -0.55907763 0 0 Z " fill="#FFFFFF" transform="translate(75,51)"/>
</svg>
