<?xml version="1.0" encoding="UTF-8"?>
<svg version="1.1" xmlns="http://www.w3.org/2000/svg" width="192" height="192">
<path d="M0 0 C1.84875732 0.01135986 1.84875732 0.01135986 3.73486328 0.02294922 C12.84287014 0.18767489 20.63847668 1.12552971 29.1875 4.4375 C30.33476563 4.85 31.48203125 5.2625 32.6640625 5.6875 C54.90865922 14.36831823 71.17702583 30.061561 81.21679688 51.65087891 C91.39643147 75.34058881 90.9029063 100.89467542 81.4375 124.6875 C74.93296016 139.03335228 65.1891558 151.4771752 52.1875 160.4375 C51.23230469 161.09621094 50.27710938 161.75492188 49.29296875 162.43359375 C43.39409389 166.28131853 37.57270981 169.32386459 31 171.8125 C30.37150146 172.05105713 29.74300293 172.28961426 29.09545898 172.53540039 C11.25198144 178.91845176 -11.10627669 179.22311851 -28.8125 172.4375 C-29.96105469 172.025 -31.10960937 171.6125 -32.29296875 171.1875 C-54.50635072 162.509242 -70.86584281 146.81626506 -80.84179688 125.20800781 C-89.45547938 104.9849752 -91.98877354 80.23890179 -83.8125 59.4375 C-83.56048828 58.77862793 -83.30847656 58.11975586 -83.04882812 57.44091797 C-79.65674548 48.69023954 -75.73233777 40.79084108 -69.8125 33.4375 C-69.25820312 32.74398437 -68.70390625 32.05046875 -68.1328125 31.3359375 C-51.13945687 11.0535453 -26.34242838 -0.22743223 0 0 Z M-26.44888306 50.03808594 C-28.29689044 53.28983117 -28.19360178 55.70451607 -28.20068359 59.4375 C-28.20594055 60.13391602 -28.21119751 60.83033203 -28.21661377 61.54785156 C-28.22979294 63.84463074 -28.22108358 66.14071406 -28.2109375 68.4375 C-28.21295885 70.03645968 -28.21587079 71.63541847 -28.21963501 73.234375 C-28.22405552 76.58342273 -28.21763624 79.93223022 -28.20361328 83.28125 C-28.18652137 87.57213464 -28.19636404 91.86245632 -28.21433067 96.15332031 C-28.22517599 99.45447016 -28.22171878 102.75548674 -28.2139473 106.05664062 C-28.21194735 107.63867255 -28.21439737 109.22071662 -28.22138596 110.80273438 C-28.22901297 113.01464851 -28.21737991 115.22565351 -28.20068359 117.4375 C-28.19829681 118.695625 -28.19591003 119.95375 -28.19345093 121.25 C-27.78675556 124.65290934 -27.23967377 126.06057049 -24.8125 128.4375 C-19.48333709 129.72892291 -15.78161196 126.99922548 -11.37695312 124.32324219 C-10.44818359 123.74219727 -9.51941406 123.16115234 -8.5625 122.5625 C-6.58981719 121.3598844 -4.61583991 120.15938977 -2.640625 118.9609375 C-1.16819336 118.0632666 -1.16819336 118.0632666 0.33398438 117.14746094 C4.39226263 114.7155495 8.53080388 112.44554802 12.6875 110.1875 C20.4309699 105.94882472 27.83948995 101.32982793 35.1875 96.4375 C36.26515625 95.75429687 37.3428125 95.07109375 38.453125 94.3671875 C41.36907156 92.55511745 41.36907156 92.55511745 43.1875 89.4375 C43.24651922 87.41672654 43.24651922 87.41672654 42.1875 85.4375 C38.77636878 82.48240237 35.16544773 80.08823927 31.3125 77.75 C30.75731689 77.41258789 30.20213379 77.07517578 29.63012695 76.72753906 C28.44046625 76.00565196 27.24976167 75.2854828 26.05810547 74.56689453 C24.13036934 73.40300686 22.20761511 72.23117424 20.28515625 71.05859375 C18.98200484 70.2678434 17.67862423 69.47747062 16.375 68.6875 C15.77768066 68.32309814 15.18036133 67.95869629 14.56494141 67.58325195 C11.55500072 65.76973988 8.53511341 64.09286209 5.37109375 62.5625 C2.21109288 61.01284382 -0.7694019 59.28117698 -3.7578125 57.421875 C-4.60730469 56.89335938 -5.45679687 56.36484375 -6.33203125 55.8203125 C-8.08166759 54.72383875 -9.82642267 53.61954049 -11.56640625 52.5078125 C-15.18821875 50.2696757 -18.02048442 48.57822259 -22.2421875 47.828125 C-24.86897939 48.21765876 -24.86897939 48.21765876 -26.44888306 50.03808594 Z " fill="#48FF00" transform="translate(95.8125,7.5625)"/>
</svg>
