<?xml version="1.0" encoding="UTF-8"?>
<svg version="1.1" xmlns="http://www.w3.org/2000/svg" width="607" height="152">
<path d="M0 0 C0 0.66 0 1.32 0 2 C0.7425 2.268125 1.485 2.53625 2.25 2.8125 C4.89061949 3.95276751 6.85552844 5.09380306 9 7 C9 7.66 9 8.32 9 9 C10.32 9.66 11.64 10.32 13 11 C13 11.66 13 12.32 13 13 C14.485 13.495 14.485 13.495 16 14 C20 19.37142857 20 19.37142857 20 22 C20.66 22 21.32 22 22 22 C31.65785098 41.0903521 35.78049534 60.37828443 29.14208984 81.16137695 C27.15323982 86.94465179 24.76833173 92.54579748 22 98 C21.34 98 20.68 98 20 98 C19.731875 98.7425 19.46375 99.485 19.1875 100.25 C18.04723249 102.89061949 16.90619694 104.85552844 15 107 C14.34 107 13.68 107 13 107 C12.01 108.98 12.01 108.98 11 111 C10.34 111 9.68 111 9 111 C8.505 112.485 8.505 112.485 8 114 C2.62857143 118 2.62857143 118 0 118 C0 118.66 0 119.32 0 120 C-19.0903521 129.65785098 -38.37828443 133.78049534 -59.16137695 127.14208984 C-64.94465179 125.15323982 -70.54579748 122.76833173 -76 120 C-76 119.34 -76 118.68 -76 118 C-76.7425 117.731875 -77.485 117.46375 -78.25 117.1875 C-80.89061949 116.04723249 -82.85552844 114.90619694 -85 113 C-85 112.34 -85 111.68 -85 111 C-86.32 110.34 -87.64 109.68 -89 109 C-89 108.34 -89 107.68 -89 107 C-90.485 106.505 -90.485 106.505 -92 106 C-96 100.62857143 -96 100.62857143 -96 98 C-96.66 98 -97.32 98 -98 98 C-107.61294755 78.998407 -111.83681616 59.60267565 -105.19921875 38.89135742 C-102.00858884 29.7193921 -97.88212201 20.04795628 -91 13 C-90.34 13 -89.68 13 -89 13 C-88.34 11.68 -87.68 10.36 -87 9 C-86.34 9 -85.68 9 -85 9 C-84.67 8.01 -84.34 7.02 -84 6 C-61.51853619 -16.54461399 -25.81058795 -13.10040641 0 0 Z M-60 30 C-60.45995509 32.56166474 -60.45995509 32.56166474 -60.38818359 35.59545898 C-60.39764008 36.76684921 -60.40709656 37.93823944 -60.4168396 39.14512634 C-60.41076691 40.41594559 -60.40469421 41.68676483 -60.3984375 42.99609375 C-60.40130768 44.29571548 -60.40417786 45.59533722 -60.40713501 46.93434143 C-60.41156148 49.68753734 -60.40511846 52.44044149 -60.39111328 55.19360352 C-60.37403745 58.7224045 -60.3838495 62.2505202 -60.40183067 65.77929592 C-60.4152825 69.14328338 -60.40586135 72.50708682 -60.3984375 75.87109375 C-60.40451019 77.13988876 -60.41058289 78.40868378 -60.4168396 79.71592712 C-60.40738312 80.89046951 -60.39792664 82.0650119 -60.38818359 83.27514648 C-60.38579681 84.3105809 -60.38341003 85.34601532 -60.38095093 86.41282654 C-60.20448032 89.03334167 -60.20448032 89.03334167 -58.61172485 90.85877991 C-57.03317452 92.21192441 -57.03317452 92.21192441 -54.82421875 91.984375 C-50.8221685 90.58946952 -47.41185666 88.46443784 -43.8125 86.25 C-37.66632839 82.54421035 -31.51012682 79.03912554 -25 76 C-25 75.34 -25 74.68 -25 74 C-24.14921875 73.74863281 -23.2984375 73.49726562 -22.421875 73.23828125 C-18.72750651 71.9013922 -15.61361696 70.21419547 -12.25 68.1875 C-11.12078125 67.52105469 -9.9915625 66.85460937 -8.828125 66.16796875 C-5.85460044 63.88854039 -4.96882796 62.55857962 -4 59 C-8.32323498 54.10033369 -13.35065027 51.20557228 -19 48 C-20.07894531 47.37996094 -21.15789062 46.75992188 -22.26953125 46.12109375 C-27.10186114 43.34673724 -31.9471692 40.59540941 -36.796875 37.8515625 C-37.41723633 37.4994873 -38.03759766 37.14741211 -38.67675781 36.78466797 C-40.39810031 35.80782685 -42.12088069 34.83352073 -43.84375 33.859375 C-47 32 -47 32 -50.15625 29.765625 C-54.20054632 27.25460586 -56.05382545 27.36921696 -60 30 Z " fill="#46FF00" transform="translate(114,16)"/>
<path d="M0 0 C5.94 0 11.88 0 18 0 C18.32798584 1.2367749 18.65597168 2.4735498 18.99389648 3.74780273 C20.20742234 8.32017216 21.42541001 12.89134293 22.64477539 17.4621582 C23.17269451 19.44360269 23.69939004 21.42537359 24.22485352 23.4074707 C24.97874461 26.25037198 25.73697535 29.09208447 26.49609375 31.93359375 C26.73154404 32.82525742 26.96699432 33.71692108 27.20957947 34.63560486 C27.42973221 35.45638016 27.64988495 36.27715546 27.87670898 37.12280273 C28.06990219 37.84894272 28.2630954 38.5750827 28.46214294 39.32322693 C28.86446586 41.01691132 28.86446586 41.01691132 30 42 C33.63 28.14 37.26 14.28 41 0 C46.94 0 52.88 0 59 0 C59 9 59 9 57.43945312 13.7734375 C57.09910034 14.83393311 56.75874756 15.89442871 56.40808105 16.98706055 C56.03622681 18.10508057 55.66437256 19.22310059 55.28125 20.375 C54.90391724 21.5400708 54.52658447 22.7051416 54.13781738 23.90551758 C52.93613474 27.60734116 51.71833578 31.30362794 50.5 35 C49.67991858 37.51657833 48.86089629 40.03350206 48.04296875 42.55078125 C46.04284243 48.70532816 44.02098927 54.85211669 42 61 C33.75 61 25.5 61 17 61 C14.73838092 54.09530501 12.47760374 47.1903463 10.21899414 40.28466797 C9.45028771 37.93522069 8.68108493 35.58593576 7.91137695 33.23681641 C6.80549873 29.86142795 5.70140322 26.48546088 4.59765625 23.109375 C4.25283707 22.05820496 3.90801788 21.00703491 3.55274963 19.92401123 C3.07236488 18.45293915 3.07236488 18.45293915 2.58227539 16.95214844 C2.30025772 16.09055115 2.01824005 15.22895386 1.72767639 14.34124756 C1.48754318 13.56863586 1.24740997 12.79602417 1 12 C0.80236557 11.40286194 0.60473114 10.80572388 0.40110779 10.19049072 C-0.21119755 6.84662855 0 3.39946056 0 0 Z " fill="#50FF00" transform="translate(375,50)"/>
<path d="M0 0 C5.94 0 11.88 0 18 0 C18.1170567 11.70567044 17.66438072 23.31401764 17 35 C17.66 35 18.32 35 19 35 C19.18175781 34.41992188 19.36351562 33.83984375 19.55078125 33.2421875 C19.80214844 32.46101563 20.05351562 31.67984375 20.3125 30.875 C20.55613281 30.10929687 20.79976563 29.34359375 21.05078125 28.5546875 C22.14468847 25.61059153 23.59541222 22.80917555 25 20 C31.27 20 37.54 20 44 20 C44 27.04544054 43.81231448 28.13600017 40 33.4375 C39.2575 34.48808594 38.515 35.53867188 37.75 36.62109375 C37.1725 37.40613281 36.595 38.19117188 36 39 C39.22437249 44.08800063 42.91992131 48.15811435 47.171875 52.4375 C49.38057904 55.53346122 49.36781487 57.27857901 49 61 C32.15090077 62.68151293 32.15090077 62.68151293 26.95703125 58.62109375 C22 51.69569672 22 51.69569672 22 48 C20.68 48 19.36 48 18 48 C18 52.29 18 56.58 18 61 C12.39 61 6.78 61 1 61 C0.97494385 59.63383545 0.9498877 58.2676709 0.92407227 56.86010742 C0.82925985 51.74788472 0.72922531 46.63577478 0.62768555 41.52368164 C0.58461384 39.31928156 0.54292179 37.11485405 0.50268555 34.91040039 C0.44430357 31.72533938 0.38081209 28.54041299 0.31640625 25.35546875 C0.29969376 24.38417526 0.28298126 23.41288177 0.26576233 22.41215515 C0.14381419 16.66396741 -0.23342324 11.01315492 -0.89002991 5.30000305 C-1 3 -1 3 0 0 Z " fill="#50FF00" transform="translate(305,50)"/>
<path d="M0 0 C6.19302201 -0.04944073 12.38592909 -0.08573905 18.57910156 -0.10986328 C20.68589275 -0.11992034 22.79266999 -0.13356768 24.89941406 -0.15087891 C27.92776941 -0.17514 30.95594019 -0.18648608 33.984375 -0.1953125 C34.92617615 -0.20563507 35.86797729 -0.21595764 36.83831787 -0.22659302 C37.71892883 -0.22674408 38.59953979 -0.22689514 39.50683594 -0.22705078 C40.27960876 -0.231492 41.05238159 -0.23593323 41.84857178 -0.24050903 C44.27181653 0.03038648 45.89773202 0.79451907 48 2 C46.46371007 7.12096644 44.4723363 11.05532739 42 16 C29.13 15.505 29.13 15.505 16 15 C16.33 17.31 16.66 19.62 17 22 C24.26 22.33 31.52 22.66 39 23 C39 27.62 39 32.24 39 37 C31.74 37 24.48 37 17 37 C17.36745007 43.40225228 17.36745007 43.40225228 17.74829102 49.80371094 C17.81294556 51.00688965 17.81294556 51.00688965 17.87890625 52.234375 C17.9260376 53.05131836 17.97316895 53.86826172 18.02172852 54.70996094 C18 57 18 57 17 61 C11.39 61 5.78 61 0 61 C-0.02505615 59.62859863 -0.0501123 58.25719727 -0.07592773 56.84423828 C-0.17064404 51.7189929 -0.27070365 46.59386295 -0.37231445 41.46875 C-0.41542192 39.2575146 -0.45711216 37.04625107 -0.49731445 34.83496094 C-0.55560795 31.64249217 -0.61912693 28.45016188 -0.68359375 25.2578125 C-0.70030624 24.28135773 -0.71701874 23.30490295 -0.73423767 22.29885864 C-0.84963592 16.85897161 -1.20616469 11.57019111 -1.98768616 6.18234253 C-2.00219684 3.61066068 -1.30252053 2.18638972 0 0 Z " fill="#51FF00" transform="translate(158,50)"/>
<path d="M0 0 C3.68763317 5.22324581 5.06362746 11.66270525 5 18 C4.505 19.485 4.505 19.485 4 21 C-4.58 21 -13.16 21 -22 21 C-19.47434165 25.15811388 -19.47434165 25.15811388 -16 26 C-9.6780419 26.33273464 -4.17577015 25.37239337 2 24 C2 28.29 2 32.58 2 37 C-7.45656226 41.20291656 -20.46883208 42.22239543 -30.3125 38.5 C-35.48262451 35.64576623 -38.07106361 30.92972246 -39.8125 25.4375 C-39.874375 24.633125 -39.93625 23.82875 -40 23 C-40.0825 21.948125 -40.165 20.89625 -40.25 19.8125 C-39.78486798 12.71923665 -38.60300649 6.97954092 -33.25 2 C-24.49815122 -4.71396342 -9.55298807 -5.83793715 0 0 Z M-20.875 12 C-21.24625 12.66 -21.6175 13.32 -22 14 C-19.36 13.67 -16.72 13.34 -14 13 C-13.67 12.01 -13.34 11.02 -13 10 C-17.46083832 9.46750717 -17.46083832 9.46750717 -20.875 12 Z " fill="#50FF00" transform="translate(471,72)"/>
<path d="M0 0 C4.02278512 3.22881437 5.1151414 8.51854785 5.78125 13.4296875 C5.45125 16.3996875 5.12125 19.3696875 4.78125 22.4296875 C-3.79875 22.4296875 -12.37875 22.4296875 -21.21875 22.4296875 C-16.8462257 26.83970983 -16.8462257 26.83970983 -11.15625 27.6171875 C-6.33276214 27.3874976 -1.9349298 26.46337074 2.78125 25.4296875 C2.78125 29.7196875 2.78125 34.0096875 2.78125 38.4296875 C-3.11411443 40.96201449 -7.82850081 41.90283126 -14.21875 41.8046875 C-14.97414063 41.81628906 -15.72953125 41.82789063 -16.5078125 41.83984375 C-22.7069365 41.8078895 -28.41610245 40.76965889 -33.27734375 36.7109375 C-33.73238281 36.123125 -34.18742188 35.5353125 -34.65625 34.9296875 C-35.12933594 34.341875 -35.60242188 33.7540625 -36.08984375 33.1484375 C-39.8294344 27.45494309 -38.68361059 18.97047243 -38.21875 12.4296875 C-36.69421786 7.00235308 -32.775199 3.5566623 -28.21875 0.4296875 C-20.15277089 -3.09917836 -8.19873931 -3.21219264 0 0 Z M-20.09375 13.4296875 C-20.465 14.0896875 -20.83625 14.7496875 -21.21875 15.4296875 C-16.76375 14.9346875 -16.76375 14.9346875 -12.21875 14.4296875 C-12.21875 13.4396875 -12.21875 12.4496875 -12.21875 11.4296875 C-16.67958832 10.89719467 -16.67958832 10.89719467 -20.09375 13.4296875 Z " fill="#50FF00" transform="translate(599.21875,70.5703125)"/>
<path d="M0 0 C2.4375 1.6875 2.4375 1.6875 4 3 C3.52269162 4.4589426 3.04308958 5.91713496 2.5625 7.375 C2.29566406 8.18710938 2.02882813 8.99921875 1.75390625 9.8359375 C1 12 1 12 0 14 C-0.73605469 13.855625 -1.47210937 13.71125 -2.23046875 13.5625 C-3.20628906 13.376875 -4.18210937 13.19125 -5.1875 13 C-6.15042969 12.814375 -7.11335937 12.62875 -8.10546875 12.4375 C-10.7934206 12.03122388 -13.28771019 11.92066428 -16 12 C-14.97519531 12.30292969 -13.95039062 12.60585937 -12.89453125 12.91796875 C-11.53359972 13.34032681 -10.17293647 13.76355003 -8.8125 14.1875 C-8.13896484 14.38408203 -7.46542969 14.58066406 -6.77148438 14.78320312 C-2.0845138 16.26931575 0.89200911 18.00993169 4 22 C5.08144309 26.01406228 4.92286646 30.15803388 3.04296875 33.91015625 C0.46974303 37.23492727 -2.05307793 38.8132384 -6 40 C-8.92111605 40.30594133 -11.81472167 40.33219579 -14.75 40.3125 C-15.95064087 40.30947876 -15.95064087 40.30947876 -17.17553711 40.30639648 C-29.91005797 40.08994203 -29.91005797 40.08994203 -34 36 C-34.07258946 33.81360547 -34.08373783 31.62499611 -34.0625 29.4375 C-34.05347656 28.23996094 -34.04445313 27.04242188 -34.03515625 25.80859375 C-34.02355469 24.88175781 -34.01195312 23.95492187 -34 23 C-32.1128125 23.433125 -32.1128125 23.433125 -30.1875 23.875 C-24.81898493 25.07180272 -19.41655444 26.04830632 -14 27 C-14 26.34 -14 25.68 -14 25 C-14.6290625 24.90203125 -15.258125 24.8040625 -15.90625 24.703125 C-21.70676685 23.68978169 -27.08832223 22.38279768 -32 19 C-34.9835054 14.52474191 -34.71912822 10.24364325 -34 5 C-32.69793197 2.04709572 -31.60073214 1.15805433 -29 -1 C-19.90440037 -4.20501081 -8.50902676 -5.10541605 0 0 Z " fill="#50FF00" transform="translate(553,72)"/>
<path d="M0 0 C0.69416016 -0.01611328 1.38832031 -0.03222656 2.10351562 -0.04882812 C8.36472512 -0.05477419 11.33035723 1.77678579 15.75 6 C16.471875 6.763125 17.19375 7.52625 17.9375 8.3125 C16.4515084 12.90556496 14.08735318 15.74819245 10.9375 19.3125 C7.91901123 18.88128732 6.02128742 18.36696182 3.4375 16.6875 C1.00939686 15.05876038 1.00939686 15.05876038 -1.8125 15.5 C-4.23471913 16.08246879 -4.23471913 16.08246879 -5.0625 18.3125 C-5.40342041 23.64217208 -5.40342041 23.64217208 -3.0625 28.3125 C3.7898059 30.69198205 10.3202686 28.40656057 16.9375 26.3125 C16.9375 30.9325 16.9375 35.5525 16.9375 40.3125 C10.8982293 42.92351497 5.99114 43.80785717 -0.5625 43.75 C-1.36558594 43.76998047 -2.16867187 43.78996094 -2.99609375 43.81054688 C-10.00026751 43.80487088 -15.43750511 41.93749489 -20.4375 36.9375 C-24.81487034 29.86636329 -25.1156905 22.05717543 -23.6328125 13.96875 C-21.98746496 8.68738754 -18.76141271 5.17746814 -14.0625 2.3125 C-9.37879076 0.34641575 -5.02122367 -0.02344175 0 0 Z " fill="#50FF00" transform="translate(281.0625,68.6875)"/>
<path d="M0 0 C5.61 0 11.22 0 17 0 C17 20.13 17 40.26 17 61 C11.39 61 5.78 61 0 61 C-0.02505615 59.59306885 -0.0501123 58.1861377 -0.07592773 56.73657227 C-0.17053072 51.48648924 -0.27061959 46.23652232 -0.37231445 40.98657227 C-0.4154642 38.71999845 -0.45715216 36.4533963 -0.49731445 34.18676758 C-0.5555037 30.91739381 -0.6190547 27.6481601 -0.68359375 24.37890625 C-0.70030624 23.37541641 -0.71701874 22.37192657 -0.73423767 21.33802795 C-0.84235492 16.13243209 -1.13979102 11.10114984 -1.98768616 5.95933533 C-2 4 -2 4 0 0 Z " fill="#50FF00" transform="translate(210,50)"/>
<path d="M0 0 C1.91015625 1.3828125 1.91015625 1.3828125 4.72265625 3.8828125 C3.3097353 8.7102924 1.29291471 12.5990484 -1.27734375 16.8828125 C-1.9528125 16.67785156 -2.62828125 16.47289063 -3.32421875 16.26171875 C-4.21625 15.99230469 -5.10828125 15.72289063 -6.02734375 15.4453125 C-6.9090625 15.17847656 -7.79078125 14.91164063 -8.69921875 14.63671875 C-10.87731239 13.99979137 -13.07578956 13.43320105 -15.27734375 12.8828125 C-15.27734375 22.1228125 -15.27734375 31.3628125 -15.27734375 40.8828125 C-20.55734375 40.8828125 -25.83734375 40.8828125 -31.27734375 40.8828125 C-31.36822266 38.15064453 -31.36822266 38.15064453 -31.4609375 35.36328125 C-31.54541224 32.93228608 -31.63005669 30.5012968 -31.71484375 28.0703125 C-31.75416016 26.87470703 -31.79347656 25.67910156 -31.83398438 24.44726562 C-32.06391229 17.95622378 -32.42893813 11.53680139 -33.17602539 5.08325195 C-33.27734375 2.8828125 -33.27734375 2.8828125 -32.27734375 -0.1171875 C-31.15714844 -0.10558594 -30.03695313 -0.09398438 -28.8828125 -0.08203125 C-27.41015792 -0.07265128 -25.93750153 -0.0635513 -24.46484375 -0.0546875 C-23.72685547 -0.04630859 -22.98886719 -0.03792969 -22.22851562 -0.02929688 C-14.82790132 0.00419007 -7.10151242 -3.48376081 0 0 Z " fill="#50FF00" transform="translate(513.27734375,70.1171875)"/>
<path d="M0 0 C5.61 0 11.22 0 17 0 C17 13.53 17 27.06 17 41 C11.39 41 5.78 41 0 41 C-0.16557627 35.48248923 -0.32799216 29.96507911 -0.48217773 24.44726562 C-0.53562556 22.56928117 -0.59095705 20.69134937 -0.64819336 18.81347656 C-0.7300268 16.11795404 -0.80513683 13.42231625 -0.87890625 10.7265625 C-0.90594131 9.88380768 -0.93297638 9.04105286 -0.96083069 8.17276001 C-1.11387171 2.22774341 -1.11387171 2.22774341 0 0 Z " fill="#50FF00" transform="translate(235,70)"/>
<path d="M0 0 C2.77837199 1.35996793 4.65620525 3.14165994 6.85546875 5.3125 C7.66628906 6.09238281 8.47710937 6.87226562 9.3125 7.67578125 C11.04296875 10 11.04296875 10 11.08984375 11.99609375 C9.64472579 14.76230834 7.7301906 16.59533682 5.48046875 18.75 C4.65417969 19.54921875 3.82789063 20.3484375 2.9765625 21.171875 C2.33847656 21.77515625 1.70039063 22.3784375 1.04296875 23 C-2.63773012 21.46356148 -4.94478329 19.21849055 -7.70703125 16.375 C-8.50625 15.55773438 -9.30546875 14.74046875 -10.12890625 13.8984375 C-10.7321875 13.27195312 -11.33546875 12.64546875 -11.95703125 12 C-10.49077269 8.65179102 -8.62044678 6.30733641 -6.08203125 3.6875 C-5.06496094 2.61048828 -5.06496094 2.61048828 -4.02734375 1.51171875 C-1.95703125 0 -1.95703125 0 0 0 Z " fill="#51FF00" transform="translate(243.95703125,46)"/>
</svg>
